<svg viewBox="0 0 301 301" fill="#FFFFFF" xmlns="http://www.w3.org/2000/svg">
    <path fill-rule="evenodd" clip-rule="evenodd" d="M134.534 0.85818L167.272 23.7166C225.36 31.3458 272.459 78.4013 277.859 139.185C282.411 190.427 256.074 237.289 214.242 261.374C210.001 263.816 205.6 266.024 201.057 267.979C196.621 269.887 192.048 271.553 187.354 272.961L210 288.773C268.098 263.785 306.302 203.61 300.4 137.183C294.391 69.543 244.512 16.3469 181.308 3.15582C177.654 2.39332 173.956 1.7645 170.22 1.27428C159.48 -0.134768 148.421 -0.398707 137.183 0.599693C136.297 0.67836 135.414 0.764545 134.534 0.85818ZM89.7188 37.9731C93.9282 35.6967 98.2857 33.6475 102.776 31.8433C107.521 29.9372 112.414 28.3045 117.438 26.9663L94.339 10.8384C34.3726 34.9262 -5.41415 96.125 0.599693 163.817C6.83603 234.014 60.3221 288.654 126.915 299.167C130.632 299.754 134.389 300.203 138.181 300.51C146.577 301.189 155.144 301.171 163.817 300.4C166.232 300.186 168.628 299.915 171.005 299.59L140.011 277.95C79.0675 273.008 28.7346 224.776 23.1411 161.815C18.4822 109.374 46.1753 61.5203 89.7188 37.9731ZM150.5 212.733C184.87 212.733 212.733 184.87 212.733 150.5C212.733 116.13 184.87 88.267 150.5 88.267C116.13 88.267 88.267 116.13 88.267 150.5C88.267 184.87 116.13 212.733 150.5 212.733ZM150.5 237.626C198.618 237.626 237.626 198.618 237.626 150.5C237.626 102.382 198.618 63.3738 150.5 63.3738C102.382 63.3738 63.3738 102.382 63.3738 150.5C63.3738 198.618 102.382 237.626 150.5 237.626Z"/>
</svg>