<svg viewBox="0 0 1001 250" fill="#FFFFFF" xmlns="http://www.w3.org/2000/svg">
    <path d="M335 202V71.4H339.4L424.6 169.4C427.667 172.867 430.467 176.333 433 179.8C435.667 183.133 437.067 184.867 437.2 185C436.933 181.8 436.8 175.533 436.8 166.2V72.2H446V202.8H441.6L354.8 103.2L343.8 89.8C344.067 92.4667 344.2 98.7333 344.2 108.6V202H335ZM560.384 202H551.384V155.6L502.384 72.2H513.384L551.184 136.6C554.118 142.467 555.784 145.6 556.184 146C556.984 144.267 558.651 141.2 561.184 136.8L598.984 72.2H609.384L560.384 156V202ZM649.903 72.2H661.103L695.703 128.4L731.903 72.2H741.903L700.303 135.8L742.103 202H731.103L693.903 142.4L655.103 202H644.903L689.303 134.8L649.903 72.2ZM799.219 202V72.2H859.819V80.2H808.419V127.4H854.819V135.2H808.419V193.6H861.819V202H799.219ZM928.633 202V72.2H937.833V193.6H997.433V202H928.633Z"/>
    <path fill-rule="evenodd" clip-rule="evenodd" d="M111.739 0.712774L138.931 19.6982C187.176 26.0347 226.295 65.1174 230.78 115.602C234.561 158.162 212.686 197.084 177.942 217.088C174.419 219.116 170.765 220.95 166.991 222.574C163.306 224.158 159.508 225.543 155.609 226.712L174.419 239.845C222.673 219.091 254.404 169.112 249.502 113.939C244.511 57.76 203.083 13.5771 150.588 2.62111C147.554 1.98781 144.482 1.46553 141.379 1.05837C132.458 -0.111934 123.273 -0.331152 113.939 0.498084C113.204 0.563422 112.47 0.635004 111.739 0.712774ZM74.5173 31.5391C78.0134 29.6484 81.6326 27.9465 85.3625 26.4479C89.3029 24.8648 93.3669 23.5087 97.5397 22.3972L78.3547 9.00202C28.5487 29.0085 -4.49681 79.838 0.498084 136.061C5.67776 194.364 50.1014 239.746 105.411 248.478C108.498 248.965 111.619 249.338 114.769 249.593C121.742 250.157 128.857 250.142 136.061 249.502C138.066 249.324 140.057 249.099 142.031 248.829L116.288 230.856C65.6707 226.751 23.866 186.691 19.2202 134.398C15.3507 90.8423 38.3516 51.0966 74.5173 31.5391ZM125 176.689C153.547 176.689 176.689 153.547 176.689 125C176.689 96.4532 153.547 73.3115 125 73.3115C96.4532 73.3115 73.3115 96.4532 73.3115 125C73.3115 153.547 96.4532 176.689 125 176.689ZM125 197.364C164.965 197.364 197.364 164.966 197.364 125C197.364 85.0345 164.965 52.6361 125 52.6361C85.0345 52.6361 52.636 85.0345 52.636 125C52.636 164.966 85.0345 197.364 125 197.364Z"/>
</svg>